<?xml version="1.0" encoding="UTF-8" standalone="no"?>
<!DOCTYPE svg PUBLIC "-//W3C//DTD SVG 1.1//EN" "http://www.w3.org/Graphics/SVG/1.1/DTD/svg11.dtd">
<svg width="100%" height="100%" viewBox="100 100 600 350" version="1.1" xmlns="http://www.w3.org/2000/svg" xmlns:xlink="http://www.w3.org/1999/xlink" xml:space="preserve" xmlns:serif="http://www.serif.com/" style="fill-rule:evenodd;clip-rule:evenodd;stroke-linejoin:round;stroke-miterlimit:2;">
    <g transform="matrix(1,0,0,1,-124.526,89.7208)">
        <g transform="matrix(288,0,0,288,257.768,307.417)">
            <path d="M0.018,-0L0.018,-0.1L0.08,-0.116L0.08,-0.646L0.006,-0.661L0.006,-0.762L0.25,-0.762L0.25,-0.116L0.301,-0.1L0.301,-0L0.018,-0ZM0.352,-0L0.352,-0.093L0.384,-0.104L0.383,-0.106L0.309,-0.214L0.425,-0.318L0.573,-0.118L0.632,-0.1L0.632,-0L0.352,-0ZM0.23,-0.139L0.142,-0.221L0.371,-0.42L0.371,-0.42L0.318,-0.429L0.318,-0.528L0.623,-0.528L0.623,-0.428L0.554,-0.408L0.23,-0.139Z" style="fill-rule:nonzero;"/>
        </g>
        <g transform="matrix(288,0,0,288,442.752,307.417)">
            <path d="M0.022,-0L0.022,-0.1L0.084,-0.116L0.084,-0.412L0.011,-0.428L0.011,-0.528L0.256,-0.528L0.256,-0.116L0.317,-0.1L0.317,-0L0.022,-0ZM0.08,-0.628L0.08,-0.762L0.256,-0.762L0.256,-0.628L0.08,-0.628Z" style="fill-rule:nonzero;"/>
        </g>
        <g transform="matrix(288,0,0,288,534.44,307.417)">
            <path d="M0.018,-0L0.018,-0.1L0.08,-0.116L0.08,-0.646L0.006,-0.661L0.006,-0.762L0.251,-0.762L0.251,-0.116L0.313,-0.1L0.313,-0L0.018,-0Z" style="fill-rule:nonzero;"/>
        </g>
        <g transform="matrix(288,0,0,288,626.268,307.417)">
            <path d="M0.354,0.01C0.323,0.01 0.296,0.004 0.275,-0.009C0.253,-0.021 0.235,-0.039 0.22,-0.063L0.208,-0L0.061,-0L0.061,-0.646L-0.013,-0.661L-0.013,-0.762L0.231,-0.762L0.231,-0.476C0.246,-0.496 0.263,-0.511 0.284,-0.522C0.305,-0.533 0.33,-0.538 0.357,-0.538C0.399,-0.538 0.435,-0.527 0.464,-0.504C0.493,-0.482 0.515,-0.45 0.531,-0.409C0.546,-0.368 0.553,-0.319 0.553,-0.263L0.553,-0.253C0.553,-0.2 0.546,-0.153 0.531,-0.114C0.515,-0.074 0.493,-0.043 0.464,-0.022C0.434,-0 0.398,0.01 0.354,0.01ZM0.3,-0.121C0.331,-0.121 0.352,-0.132 0.365,-0.154C0.377,-0.176 0.383,-0.209 0.383,-0.253L0.383,-0.263C0.383,-0.294 0.38,-0.32 0.375,-0.341C0.369,-0.362 0.361,-0.379 0.349,-0.39C0.337,-0.401 0.322,-0.407 0.302,-0.407C0.286,-0.407 0.272,-0.403 0.26,-0.396C0.248,-0.388 0.238,-0.378 0.231,-0.365L0.231,-0.152C0.24,-0.141 0.25,-0.133 0.261,-0.128C0.273,-0.124 0.286,-0.121 0.3,-0.121Z" style="fill-rule:nonzero;"/>
        </g>
    </g>
    <g transform="matrix(1,0,0,1,6.32282,-24.6914)">
        <circle cx="354.154" cy="202.455" r="62.507" style="fill:rgb(52,170,49);"/>
    </g>
    <g transform="matrix(1,0,0,1,-12.4077,1.74772)">
        <text x="322.042px" y="189.211px" style="font-family:'RobotoSlab-Regular_Bold', 'Roboto Slab';font-size:50px;fill:white;">c<tspan x="348.702px " y="189.211px ">o</tspan>m</text>
    </g>
</svg>
